# Blender v2.82 (sub 7) OBJ File: 'inner_room.blend'
# www.blender.org
mtllib inner_room.mtl
o Cube_Cube.002
v 0.000000 0.000000 0.000000
v 0.000000 0.000000 1.000000
v 0.000000 1.000000 0.000000
v 0.000000 1.000000 1.000000
v 1.000000 0.000000 0.000000
v 1.000000 0.000000 1.000000
v 1.000000 1.000000 0.000000
v 1.000000 1.000000 1.000000
v 0.000000 0.888889 0.000000
v 0.000000 0.777778 0.000000
v 0.000000 0.666667 0.000000
v 0.000000 0.555556 0.000000
v 0.000000 0.444444 0.000000
v 0.000000 0.333333 0.000000
v 0.000000 0.222222 0.000000
v 0.000000 0.111111 0.000000
v 1.000000 0.111111 0.000000
v 1.000000 0.222222 0.000000
v 1.000000 0.333333 0.000000
v 1.000000 0.444444 0.000000
v 1.000000 0.555556 0.000000
v 1.000000 0.666667 0.000000
v 1.000000 0.777778 0.000000
v 1.000000 0.888889 0.000000
v 0.000000 0.090909 1.000000
v 0.000000 0.181818 1.000000
v 0.000000 0.272727 1.000000
v 0.000000 0.363636 1.000000
v 0.000000 0.454545 1.000000
v 0.000000 0.545455 1.000000
v 0.000000 0.636364 1.000000
v 0.000000 0.727273 1.000000
v 0.000000 0.818182 1.000000
v 0.000000 0.909091 1.000000
v 1.000000 0.909091 1.000000
v 1.000000 0.818182 1.000000
v 1.000000 0.727273 1.000000
v 1.000000 0.636364 1.000000
v 1.000000 0.545455 1.000000
v 1.000000 0.454545 1.000000
v 1.000000 0.363636 1.000000
v 1.000000 0.272727 1.000000
v 1.000000 0.181818 1.000000
v 1.000000 0.090909 1.000000
vt 0.375000 0.000000
vt 0.375000 0.027778
vt 0.375000 0.055556
vt 0.375000 0.083333
vt 0.375000 0.111111
vt 0.375000 0.138889
vt 0.375000 0.166667
vt 0.375000 0.194444
vt 0.375000 0.222222
vt 0.375000 0.250000
vt 0.625000 0.250000
vt 0.625000 0.227273
vt 0.625000 0.204545
vt 0.625000 0.181818
vt 0.625000 0.159091
vt 0.625000 0.136364
vt 0.625000 0.113636
vt 0.625000 0.090909
vt 0.625000 0.068182
vt 0.625000 0.045455
vt 0.625000 0.022727
vt 0.625000 0.000000
vt 0.375000 0.500000
vt 0.375000 0.527778
vt 0.375000 0.555556
vt 0.375000 0.583333
vt 0.375000 0.611111
vt 0.375000 0.638889
vt 0.375000 0.666667
vt 0.375000 0.694444
vt 0.375000 0.722222
vt 0.375000 0.750000
vt 0.625000 0.750000
vt 0.625000 0.727273
vt 0.625000 0.704545
vt 0.625000 0.681818
vt 0.625000 0.659091
vt 0.625000 0.636364
vt 0.625000 0.613636
vt 0.625000 0.590909
vt 0.625000 0.568182
vt 0.625000 0.545455
vt 0.625000 0.522727
vt 0.625000 0.500000
vt 0.125000 0.722222
vt 0.125000 0.750000
vt 0.875000 0.750000
vt 0.875000 0.727273
vt 0.125000 0.500000
vt 0.125000 0.527778
vt 0.125000 0.555556
vt 0.125000 0.583333
vt 0.125000 0.611111
vt 0.125000 0.638889
vt 0.125000 0.666667
vt 0.125000 0.694444
vt 0.875000 0.522727
vt 0.875000 0.500000
vt 0.875000 0.545455
vt 0.875000 0.568182
vt 0.875000 0.590909
vt 0.875000 0.613636
vt 0.875000 0.636364
vt 0.875000 0.659091
vt 0.875000 0.681818
vt 0.875000 0.704545
vn 1.0000 0.0000 0.0000
vn -1.0000 0.0000 0.0000
vn 0.0000 0.0000 1.0000
vn 0.0000 0.0000 -1.0000
usemtl None
s off
f 1/1/1 16/2/1 15/3/1 14/4/1 13/5/1 12/6/1 11/7/1 10/8/1 9/9/1 3/10/1 4/11/1 34/12/1 33/13/1 32/14/1 31/15/1 30/16/1 29/17/1 28/18/1 27/19/1 26/20/1 25/21/1 2/22/1
f 7/23/2 24/24/2 23/25/2 22/26/2 21/27/2 20/28/2 19/29/2 18/30/2 17/31/2 5/32/2 6/33/2 44/34/2 43/35/2 42/36/2 41/37/2 40/38/2 39/39/2 38/40/2 37/41/2 36/42/2 35/43/2 8/44/2
f 16/45/3 1/46/3 5/32/3 17/31/3
f 44/34/4 6/33/4 2/47/4 25/48/4
f 3/49/3 9/50/3 24/24/3 7/23/3
f 9/50/3 10/51/3 23/25/3 24/24/3
f 10/51/3 11/52/3 22/26/3 23/25/3
f 11/52/3 12/53/3 21/27/3 22/26/3
f 12/53/3 13/54/3 20/28/3 21/27/3
f 13/54/3 14/55/3 19/29/3 20/28/3
f 14/55/3 15/56/3 18/30/3 19/29/3
f 15/56/3 16/45/3 17/31/3 18/30/3
f 8/44/4 35/43/4 34/57/4 4/58/4
f 35/43/4 36/42/4 33/59/4 34/57/4
f 36/42/4 37/41/4 32/60/4 33/59/4
f 37/41/4 38/40/4 31/61/4 32/60/4
f 38/40/4 39/39/4 30/62/4 31/61/4
f 39/39/4 40/38/4 29/63/4 30/62/4
f 40/38/4 41/37/4 28/64/4 29/63/4
f 41/37/4 42/36/4 27/65/4 28/64/4
f 42/36/4 43/35/4 26/66/4 27/65/4
f 43/35/4 44/34/4 25/48/4 26/66/4
